<svg id="Layer_1" data-name="Layer 1" xmlns="http://www.w3.org/2000/svg" xmlns:xlink="http://www.w3.org/1999/xlink" viewBox="0 0 113.69 117"><defs><style>.cls-1{fill:none;}.cls-2{fill:#01162b;}.cls-3{clip-path:url(#clip-path);}.cls-4{fill:#00968b;}</style><clipPath id="clip-path" transform="translate(-618.42 -325.66)"><path class="cls-1" d="M618.71,442c25.36,1.46,95.27-.2,113.76-.68,2.2-.05,3.69-3.5,2.88-6.68l-15-59.46c-.87-3.41-3.75-4.21-5.31-1.46l-24.68,43.53c-1.43,2.52-4,2.11-5.11-.81l-1-2.67c-1.1-2.95-3.75-3.32-5.16-.71-1.71,3.17-5,1.81-5.52-2.26l-5.74-47.54c-.6-4.92-5-5.47-6.08-.75L650.1,413.43c-.82,3.63-3.9,4.41-5.44,1.39l-5.87-11.53c-1.22-2.4-3.54-2.5-4.84-.21l-17.49,30.81C614.71,437,616.06,441.88,618.71,442Z"/></clipPath></defs><title>possiblelogos</title><path class="cls-2" d="M618.42,383.88c.16-32.31,25.81-58.37,57.29-58.22,75.58,3.43,75,114.32-.58,117C643.65,442.5,618.26,416.19,618.42,383.88Z" transform="translate(-618.42 -325.66)"/><g class="cls-3"><path class="cls-4" d="M619.41,385.88a56.51,56.51,0,0,1,56.78-56.22c74.93,3.35,74.38,110.4-.56,113A56.5,56.5,0,0,1,619.41,385.88Z" transform="translate(-618.42 -325.66)"/></g><circle class="cls-4" cx="46.58" cy="11.34" r="2"/><circle class="cls-4" cx="20.08" cy="42.84" r="2.5"/><circle class="cls-4" cx="73.08" cy="62.84" r="4.5"/><circle class="cls-4" cx="89.08" cy="33.84" r="1.5"/></svg>